<mxfile host="app.diagrams.net" modified="2023-06-12T10:28:07.441Z" agent="Mozilla/5.0 (Windows NT 10.0; Win64; x64) AppleWebKit/537.36 (KHTML, like Gecko) Chrome/112.0.0.0 Safari/537.36" etag="XwCIAVB8i9SFz4OVZdOf" version="21.3.7" type="github">
  <diagram name="第 1 页" id="7p4oWYYam-k33Xym5YHT">
    <mxGraphModel dx="1434" dy="774" grid="1" gridSize="10" guides="1" tooltips="1" connect="1" arrows="1" fold="1" page="1" pageScale="1" pageWidth="827" pageHeight="1169" math="0" shadow="0">
      <root>
        <mxCell id="0" />
        <mxCell id="1" parent="0" />
        <mxCell id="ZwRfqZT_dszzTpxQl1mQ-1" value="Actor" style="shape=umlActor;verticalLabelPosition=bottom;verticalAlign=top;html=1;outlineConnect=0;" vertex="1" parent="1">
          <mxGeometry x="394" y="40" width="20" height="40" as="geometry" />
        </mxCell>
        <mxCell id="ZwRfqZT_dszzTpxQl1mQ-2" value="琶洲机房" style="rounded=0;whiteSpace=wrap;html=1;" vertex="1" parent="1">
          <mxGeometry x="160" y="120" width="120" height="30" as="geometry" />
        </mxCell>
        <mxCell id="ZwRfqZT_dszzTpxQl1mQ-3" value="五沙机房" style="rounded=0;whiteSpace=wrap;html=1;" vertex="1" parent="1">
          <mxGeometry x="520" y="120" width="120" height="30" as="geometry" />
        </mxCell>
        <mxCell id="ZwRfqZT_dszzTpxQl1mQ-6" value="OA内网nginx轮询VIP：10.83.11.250&lt;br&gt;10.83.11.21&lt;br&gt;10.83.11.22" style="rounded=1;whiteSpace=wrap;html=1;" vertex="1" parent="1">
          <mxGeometry x="160" y="210" width="120" height="60" as="geometry" />
        </mxCell>
        <mxCell id="ZwRfqZT_dszzTpxQl1mQ-15" style="edgeStyle=orthogonalEdgeStyle;rounded=0;orthogonalLoop=1;jettySize=auto;html=1;exitX=0.5;exitY=1;exitDx=0;exitDy=0;entryX=0.5;entryY=0;entryDx=0;entryDy=0;" edge="1" parent="1" source="ZwRfqZT_dszzTpxQl1mQ-7" target="ZwRfqZT_dszzTpxQl1mQ-10">
          <mxGeometry relative="1" as="geometry" />
        </mxCell>
        <mxCell id="ZwRfqZT_dszzTpxQl1mQ-7" value="OA内网nginx轮询VIP：10.85.11.250&lt;br&gt;10.85.11.23&lt;br&gt;10.85.11.24" style="rounded=1;whiteSpace=wrap;html=1;" vertex="1" parent="1">
          <mxGeometry x="520" y="210" width="120" height="60" as="geometry" />
        </mxCell>
        <mxCell id="ZwRfqZT_dszzTpxQl1mQ-8" value="" style="endArrow=classic;html=1;rounded=0;exitX=0;exitY=1;exitDx=0;exitDy=0;exitPerimeter=0;entryX=0.442;entryY=0.017;entryDx=0;entryDy=0;entryPerimeter=0;" edge="1" parent="1" source="ZwRfqZT_dszzTpxQl1mQ-1" target="ZwRfqZT_dszzTpxQl1mQ-6">
          <mxGeometry width="50" height="50" relative="1" as="geometry">
            <mxPoint x="390" y="320" as="sourcePoint" />
            <mxPoint x="440" y="270" as="targetPoint" />
          </mxGeometry>
        </mxCell>
        <mxCell id="ZwRfqZT_dszzTpxQl1mQ-21" style="edgeStyle=orthogonalEdgeStyle;rounded=0;orthogonalLoop=1;jettySize=auto;html=1;exitX=0.5;exitY=1;exitDx=0;exitDy=0;" edge="1" parent="1" source="ZwRfqZT_dszzTpxQl1mQ-9" target="ZwRfqZT_dszzTpxQl1mQ-11">
          <mxGeometry relative="1" as="geometry" />
        </mxCell>
        <mxCell id="ZwRfqZT_dszzTpxQl1mQ-9" value="OA网关（APPSIX）&lt;br&gt;10.83.13.158&lt;br&gt;10.83.13.189&lt;br&gt;10.83.13.198&lt;br&gt;10.83.13.77&lt;br&gt;" style="rounded=1;whiteSpace=wrap;html=1;" vertex="1" parent="1">
          <mxGeometry x="155" y="360" width="130" height="70" as="geometry" />
        </mxCell>
        <mxCell id="ZwRfqZT_dszzTpxQl1mQ-22" style="edgeStyle=orthogonalEdgeStyle;rounded=0;orthogonalLoop=1;jettySize=auto;html=1;exitX=0.5;exitY=1;exitDx=0;exitDy=0;" edge="1" parent="1" source="ZwRfqZT_dszzTpxQl1mQ-10" target="ZwRfqZT_dszzTpxQl1mQ-12">
          <mxGeometry relative="1" as="geometry" />
        </mxCell>
        <mxCell id="ZwRfqZT_dszzTpxQl1mQ-10" value="OA网关（APPSIX）&lt;br&gt;10.85.13.72&lt;br&gt;10.85.13.73&lt;br&gt;10.85.13.74&lt;br&gt;10.85.13.75" style="rounded=1;whiteSpace=wrap;html=1;" vertex="1" parent="1">
          <mxGeometry x="515" y="360" width="130" height="70" as="geometry" />
        </mxCell>
        <mxCell id="ZwRfqZT_dszzTpxQl1mQ-11" value="IT HAproxy&lt;br&gt;VIP:10.83.45.162&lt;br&gt;10.83.45.23&lt;br&gt;10.83.45.24&lt;br&gt;1.83.45.26" style="rounded=1;whiteSpace=wrap;html=1;" vertex="1" parent="1">
          <mxGeometry x="160" y="480" width="120" height="75.5" as="geometry" />
        </mxCell>
        <mxCell id="ZwRfqZT_dszzTpxQl1mQ-12" value="IT HAproxy&lt;br&gt;VIP:10.83.45.162&lt;br&gt;10.83.45.23&lt;br&gt;10.83.45.24&lt;br&gt;1.83.45.26" style="rounded=1;whiteSpace=wrap;html=1;" vertex="1" parent="1">
          <mxGeometry x="520" y="480" width="120" height="75.5" as="geometry" />
        </mxCell>
        <mxCell id="ZwRfqZT_dszzTpxQl1mQ-14" value="" style="endArrow=classic;html=1;rounded=0;exitX=0.5;exitY=1;exitDx=0;exitDy=0;entryX=0.5;entryY=0;entryDx=0;entryDy=0;" edge="1" parent="1" source="ZwRfqZT_dszzTpxQl1mQ-6" target="ZwRfqZT_dszzTpxQl1mQ-9">
          <mxGeometry width="50" height="50" relative="1" as="geometry">
            <mxPoint x="404" y="90" as="sourcePoint" />
            <mxPoint x="223" y="221" as="targetPoint" />
          </mxGeometry>
        </mxCell>
        <mxCell id="ZwRfqZT_dszzTpxQl1mQ-17" value="" style="endArrow=classic;html=1;rounded=0;exitX=0.5;exitY=1;exitDx=0;exitDy=0;entryX=0.5;entryY=0;entryDx=0;entryDy=0;" edge="1" parent="1" source="ZwRfqZT_dszzTpxQl1mQ-6" target="ZwRfqZT_dszzTpxQl1mQ-10">
          <mxGeometry width="50" height="50" relative="1" as="geometry">
            <mxPoint x="404" y="90" as="sourcePoint" />
            <mxPoint x="223" y="221" as="targetPoint" />
          </mxGeometry>
        </mxCell>
        <mxCell id="ZwRfqZT_dszzTpxQl1mQ-18" value="" style="endArrow=classic;html=1;rounded=0;exitX=0.5;exitY=1;exitDx=0;exitDy=0;entryX=0.5;entryY=0;entryDx=0;entryDy=0;" edge="1" parent="1" source="ZwRfqZT_dszzTpxQl1mQ-7" target="ZwRfqZT_dszzTpxQl1mQ-9">
          <mxGeometry width="50" height="50" relative="1" as="geometry">
            <mxPoint x="414" y="100" as="sourcePoint" />
            <mxPoint x="233" y="231" as="targetPoint" />
          </mxGeometry>
        </mxCell>
        <mxCell id="ZwRfqZT_dszzTpxQl1mQ-19" value="&lt;br&gt;&lt;br&gt;&lt;br&gt;&lt;br&gt;&lt;br&gt;&lt;br&gt;&lt;br&gt;&lt;br&gt;&lt;br&gt;&lt;br&gt;&lt;br&gt;IT Noah容器" style="rounded=0;whiteSpace=wrap;html=1;" vertex="1" parent="1">
          <mxGeometry x="30" y="650" width="770" height="180" as="geometry" />
        </mxCell>
        <mxCell id="ZwRfqZT_dszzTpxQl1mQ-4" value="" style="endArrow=none;dashed=1;html=1;dashPattern=1 3;strokeWidth=2;rounded=0;" edge="1" parent="1">
          <mxGeometry width="50" height="50" relative="1" as="geometry">
            <mxPoint x="400" y="1080" as="sourcePoint" />
            <mxPoint x="400" y="120" as="targetPoint" />
          </mxGeometry>
        </mxCell>
        <mxCell id="ZwRfqZT_dszzTpxQl1mQ-25" value="" style="endArrow=classic;html=1;rounded=0;exitX=0.5;exitY=1;exitDx=0;exitDy=0;entryX=0.5;entryY=0;entryDx=0;entryDy=0;" edge="1" parent="1" source="ZwRfqZT_dszzTpxQl1mQ-9" target="ZwRfqZT_dszzTpxQl1mQ-12">
          <mxGeometry width="50" height="50" relative="1" as="geometry">
            <mxPoint x="230" y="280" as="sourcePoint" />
            <mxPoint x="590" y="370" as="targetPoint" />
          </mxGeometry>
        </mxCell>
        <mxCell id="ZwRfqZT_dszzTpxQl1mQ-26" value="" style="endArrow=classic;html=1;rounded=0;entryX=0.5;entryY=0;entryDx=0;entryDy=0;" edge="1" parent="1" target="ZwRfqZT_dszzTpxQl1mQ-11">
          <mxGeometry width="50" height="50" relative="1" as="geometry">
            <mxPoint x="580" y="430" as="sourcePoint" />
            <mxPoint x="230" y="370" as="targetPoint" />
          </mxGeometry>
        </mxCell>
        <mxCell id="ZwRfqZT_dszzTpxQl1mQ-27" value="" style="rounded=0;whiteSpace=wrap;html=1;" vertex="1" parent="1">
          <mxGeometry x="120" y="660" width="190" height="160" as="geometry" />
        </mxCell>
        <mxCell id="ZwRfqZT_dszzTpxQl1mQ-28" value="" style="rounded=1;whiteSpace=wrap;html=1;" vertex="1" parent="1">
          <mxGeometry x="145" y="670" width="150" height="60" as="geometry" />
        </mxCell>
        <mxCell id="ZwRfqZT_dszzTpxQl1mQ-29" value="ssal-h5-api-[a,b].vipshop.com&lt;br&gt;2个容器" style="rounded=1;whiteSpace=wrap;html=1;" vertex="1" parent="1">
          <mxGeometry x="145" y="750" width="150" height="60" as="geometry" />
        </mxCell>
      </root>
    </mxGraphModel>
  </diagram>
</mxfile>
